<svg width="229" height="248" viewBox="0 0 229 248" fill="none" xmlns="http://www.w3.org/2000/svg">
<path d="M180.977 6.47042C175.3 -1.32539 160.965 2.62248 149.024 10.2074C138.483 5.4833 126.799 2.85591 114.5 2.85591C101.779 2.85591 89.715 5.6668 78.8946 10.7013C66.8071 2.79768 51.9744 -1.49267 46.1751 6.4706C40.7827 13.8751 41.0516 23.898 46.9815 36.5393C43.3313 41.3817 40.1898 46.6292 37.6367 52.2025C17.5275 54.8306 2 72.03 2 92.8559C2 110.363 12.9727 125.307 28.416 131.186C19.0248 152.76 13.3667 174.1 13.3667 189.709C13.3667 209.638 21.6719 222.148 35.4378 229.951C34.5096 231.249 34 232.662 34 234.141C34 240.492 43.402 245.641 55 245.641C62.3148 245.641 68.7561 243.593 72.5161 240.487C85.623 242.074 100.176 242.494 115.393 242.494C130.091 242.494 144.07 242.102 156.679 240.645C160.464 243.662 166.81 245.641 174 245.641C185.598 245.641 195 240.492 195 234.141C195 232.804 194.583 231.519 193.816 230.325C207.685 222.55 216 209.96 216 189.709C216 174.041 210.456 152.6 201.21 130.942C216.322 124.903 227 110.126 227 92.8559C227 72.03 211.472 54.8306 191.363 52.2035C188.543 46.0469 185.005 40.2877 180.856 35.0332C186.113 23.0994 186.154 13.5785 180.977 6.47042Z" fill="#FAFAFA" stroke="#E98A83" stroke-width="4"/>
</svg>
