<svg width="242" height="248" viewBox="0 0 242 248" fill="none" xmlns="http://www.w3.org/2000/svg">
<path fill-rule="evenodd" clip-rule="evenodd" d="M46.1751 6.4713C51.9744 -1.49206 66.8074 2.79846 78.8949 10.7023C89.7153 5.66784 101.779 2.85701 114.5 2.85701C126.798 2.85701 138.483 5.48438 149.024 10.2085C160.965 2.62352 175.3 -1.32439 180.977 6.47145C186.154 13.5795 186.113 23.1005 180.856 35.0343C185.005 40.2888 188.543 46.048 191.363 52.2046C211.472 54.8317 227 72.0311 227 92.857C227 100.996 224.628 108.582 220.538 114.96C225.059 112.412 228.397 111.008 230.686 110.737C231.544 110.635 232.369 111.095 232.734 111.878L233.425 113.358L235.902 113.637C236.94 113.754 237.713 114.65 237.677 115.694L237.646 116.592L239.214 118.598C239.737 119.267 239.781 120.193 239.324 120.908C234.306 128.752 230.6 135.129 228.211 140.021C226.451 143.625 221.274 151.883 212.637 164.868C214.818 174.015 216 182.478 216 189.711C216 209.961 207.685 222.551 193.817 230.326C194.583 231.52 195 232.804 195 234.142C195 240.493 185.598 245.642 174 245.642C166.81 245.642 160.465 243.663 156.679 240.646C144.071 242.103 130.091 242.495 115.393 242.495C100.176 242.495 85.6227 242.075 72.5156 240.488C68.7556 243.594 62.3145 245.642 55 245.642C43.402 245.642 34 240.493 34 234.142C34 232.663 34.5095 231.25 35.4376 229.952C21.6718 222.149 13.3667 209.639 13.3667 189.711C13.3667 174.101 19.0248 152.761 28.416 131.187C12.9727 125.308 2 110.364 2 92.857C2 72.0311 17.5275 54.8317 37.6367 52.2036C40.1899 46.6303 43.3313 41.3827 46.9817 36.5403C41.0516 23.8989 40.7827 13.8759 46.1751 6.4713Z" fill="#FAFAFA"/>
<path d="M78.8949 10.7023L77.8004 12.3762L78.7308 12.9845L79.7386 12.5156L78.8949 10.7023ZM46.1751 6.4713L47.7918 7.64867L47.7918 7.64867L46.1751 6.4713ZM149.024 10.2085L148.206 12.0336L149.188 12.4737L150.096 11.8967L149.024 10.2085ZM180.977 6.47145L179.361 7.64882L179.361 7.64883L180.977 6.47145ZM180.856 35.0343L179.026 34.228L178.54 35.3292L179.286 36.2737L180.856 35.0343ZM191.363 52.2046L189.545 53.0375L190.006 54.0443L191.104 54.1877L191.363 52.2046ZM220.538 114.96L218.855 113.88L221.52 116.702L220.538 114.96ZM230.686 110.737L230.451 108.751L230.451 108.751L230.686 110.737ZM232.734 111.878L234.547 111.032L234.547 111.032L232.734 111.878ZM233.425 113.358L231.612 114.203L232.086 115.22L233.201 115.345L233.425 113.358ZM235.902 113.637L235.678 115.625L235.678 115.625L235.902 113.637ZM237.677 115.694L239.676 115.762L239.676 115.762L237.677 115.694ZM237.646 116.592L235.647 116.523L235.622 117.251L236.07 117.824L237.646 116.592ZM239.214 118.598L240.79 117.366L240.79 117.366L239.214 118.598ZM239.324 120.908L241.009 121.985L241.009 121.985L239.324 120.908ZM228.211 140.021L230.008 140.898L230.008 140.898L228.211 140.021ZM212.637 164.868L210.971 163.76L210.489 164.485L210.691 165.332L212.637 164.868ZM193.817 230.326L192.839 228.582L190.986 229.62L192.134 231.407L193.817 230.326ZM156.679 240.646L157.926 239.082L157.276 238.564L156.45 238.659L156.679 240.646ZM72.5156 240.488L72.7561 238.503L71.9038 238.399L71.2419 238.946L72.5156 240.488ZM35.4376 229.952L37.0647 231.115L38.3567 229.307L36.4239 228.212L35.4376 229.952ZM28.416 131.187L30.2498 131.986L31.0863 130.064L29.1276 129.318L28.416 131.187ZM37.6367 52.2036L37.8959 54.1867L38.9939 54.0432L39.455 53.0365L37.6367 52.2036ZM46.9817 36.5403L48.5787 37.7442L49.3041 36.7819L48.7923 35.6909L46.9817 36.5403ZM79.9895 9.02836C73.8035 4.98347 66.8208 1.79533 60.5297 0.667956C54.308 -0.446974 48.1368 0.380233 44.5584 5.29392L47.7918 7.64867C50.0128 4.599 54.1576 3.58979 59.8242 4.60524C65.4212 5.60824 71.8988 8.51726 77.8004 12.3762L79.9895 9.02836ZM114.5 0.857009C101.482 0.857009 89.1304 3.73408 78.0512 8.88894L79.7386 12.5156C90.3002 7.6016 102.077 4.85701 114.5 4.85701V0.857009ZM149.842 8.38342C139.049 3.54625 127.086 0.857009 114.5 0.857009V4.85701C126.511 4.85701 137.918 7.42252 148.206 12.0336L149.842 8.38342ZM182.594 5.29407C179.091 0.484497 173.1 -0.409852 167.022 0.599174C160.886 1.61787 154.062 4.6386 147.951 8.52028L150.096 11.8967C155.926 8.19342 162.241 5.4477 167.677 4.54516C173.172 3.63295 177.186 4.66256 179.361 7.64882L182.594 5.29407ZM182.686 35.8406C188.079 23.5983 188.372 13.228 182.594 5.29407L179.361 7.64883C183.936 13.931 184.147 22.6026 179.026 34.228L182.686 35.8406ZM193.181 51.3717C190.294 45.0686 186.672 39.1732 182.426 33.7949L179.286 36.2737C183.337 41.4045 186.792 47.0273 189.545 53.0375L193.181 51.3717ZM229 92.857C229 71.0136 212.715 52.977 191.622 50.2214L191.104 54.1877C210.23 56.6865 225 73.0485 225 92.857H229ZM222.222 116.039C226.512 109.349 229 101.39 229 92.857H225C225 100.602 222.744 107.815 218.855 113.88L222.222 116.039ZM221.52 116.702C226.036 114.157 229.067 112.943 230.922 112.723L230.451 108.751C227.727 109.073 224.081 110.668 219.556 113.217L221.52 116.702ZM230.922 112.723L230.922 112.723L234.547 111.032C233.817 109.468 232.166 108.547 230.451 108.751L230.922 112.723ZM230.922 112.723L231.612 114.203L235.237 112.513L234.547 111.032L230.922 112.723ZM233.201 115.345L235.678 115.625L236.126 111.65L233.649 111.371L233.201 115.345ZM235.678 115.625L235.678 115.625L239.676 115.762C239.748 113.675 238.201 111.884 236.126 111.65L235.678 115.625ZM235.678 115.625L235.647 116.523L239.645 116.661L239.676 115.762L235.678 115.625ZM236.07 117.824L237.639 119.83L240.79 117.366L239.221 115.36L236.07 117.824ZM237.639 119.83L237.639 119.83L241.009 121.985C241.923 120.555 241.836 118.703 240.79 117.366L237.639 119.83ZM237.639 119.83C232.604 127.701 228.852 134.151 226.414 139.143L230.008 140.898C232.349 136.106 236.008 129.803 241.009 121.985L237.639 119.83ZM226.414 139.143C224.725 142.602 219.635 150.735 210.971 163.76L214.302 165.976C222.913 153.03 228.177 144.649 230.008 140.898L226.414 139.143ZM218 189.711C218 182.276 216.788 173.65 214.582 164.404L210.691 165.332C212.849 174.379 214 182.68 214 189.711H218ZM194.795 232.071C201.991 228.036 207.824 222.705 211.844 215.691C215.862 208.682 218 200.114 218 189.711H214C214 199.558 211.98 207.41 208.374 213.702C204.77 219.989 199.511 224.841 192.839 228.582L194.795 232.071ZM197 234.142C197 232.371 196.444 230.717 195.5 229.246L192.134 231.407C192.722 232.323 193 233.238 193 234.142H197ZM174 247.642C180.069 247.642 185.662 246.299 189.81 244.027C193.884 241.797 197 238.388 197 234.142H193C193 236.246 191.415 238.588 187.889 240.519C184.436 242.41 179.529 243.642 174 243.642V247.642ZM155.433 242.21C159.675 245.591 166.509 247.642 174 247.642V243.642C167.112 243.642 161.255 241.735 157.926 239.082L155.433 242.21ZM115.393 244.495C130.116 244.495 144.186 244.103 156.909 242.633L156.45 238.659C143.956 240.103 130.066 240.495 115.393 240.495V244.495ZM72.2752 242.474C85.5027 244.075 100.151 244.495 115.393 244.495V240.495C100.201 240.495 85.7427 240.075 72.7561 238.503L72.2752 242.474ZM55 247.642C62.6176 247.642 69.5633 245.521 73.7894 242.03L71.2419 238.946C67.9479 241.667 62.0114 243.642 55 243.642V247.642ZM32 234.142C32 238.388 35.1165 241.797 39.1901 244.028C43.3377 246.299 48.9311 247.642 55 247.642V243.642C49.4709 243.642 44.5643 242.41 41.1114 240.519C37.5845 238.588 36 236.247 36 234.142H32ZM33.8106 228.788C32.6807 230.369 32 232.181 32 234.142H36C36 233.145 36.3384 232.131 37.0647 231.115L33.8106 228.788ZM11.3667 189.711C11.3667 199.958 13.5043 208.426 17.5068 215.376C21.5108 222.33 27.312 227.645 34.4514 231.691L36.4239 228.212C29.7974 224.456 24.5631 219.615 20.9731 213.38C17.3816 207.143 15.3667 199.392 15.3667 189.711H11.3667ZM26.5822 130.389C17.1401 152.08 11.3667 173.71 11.3667 189.711H15.3667C15.3667 174.492 20.9095 153.443 30.2498 131.986L26.5822 130.389ZM0 92.857C0 111.221 11.511 126.892 27.7044 133.056L29.1276 129.318C14.4344 123.725 4 109.507 4 92.857H0ZM37.3776 50.2205C16.2855 52.9771 0 71.0136 0 92.857H4C4 73.0486 18.7696 56.6864 37.8959 54.1867L37.3776 50.2205ZM45.3846 35.3363C41.6482 40.2929 38.4323 45.6647 35.8185 51.3706L39.455 53.0365C41.9474 47.5958 45.0144 42.4724 48.5787 37.7442L45.3846 35.3363ZM44.5584 5.29392C38.5372 13.5619 39.1081 24.4652 45.171 37.3896L48.7923 35.6909C42.995 23.3326 43.0282 14.1899 47.7918 7.64867L44.5584 5.29392Z" fill="#E98A83"/>
</svg>
