<svg width="229" height="249" viewBox="0 0 229 249" fill="none" xmlns="http://www.w3.org/2000/svg">
<path d="M149.024 10.2076C160.965 2.62254 175.3 -1.32546 180.977 6.47042C186.154 13.5785 186.113 23.0995 180.856 35.0334C185.005 40.288 188.543 46.0471 191.363 52.2038C211.472 54.8309 227 72.0303 227 92.8562C227 109.988 216.492 124.666 201.572 130.796C210.6 152.162 216 173.247 216 188.71C216 217.305 199.421 230.625 174.037 236.683C168.232 244.924 159.277 248.7 153.124 245.148C151.253 244.068 149.839 242.424 148.897 240.402C138.409 241.245 127.13 241.495 115.393 241.495C103.344 241.495 91.7116 241.231 80.8835 240.334C79.9412 242.387 78.5167 244.056 76.6244 245.148C70.4334 248.723 61.4032 244.877 55.602 236.526C30.175 230.396 13.3667 217.061 13.3667 188.71C13.3667 173.307 18.8757 152.325 28.0471 131.044C12.7983 125.069 2 110.223 2 92.8562C2 72.0303 17.5275 54.8309 37.6367 52.2028C40.1899 46.6295 43.3313 41.3819 46.9816 36.5395C41.0516 23.8982 40.7827 13.8752 46.1751 6.47065C51.9744 -1.49267 66.8073 2.79778 78.8948 10.7015C89.7152 5.66706 101.779 2.85621 114.5 2.85621C126.798 2.85621 138.483 5.48355 149.024 10.2076Z" fill="#FAFAFA" stroke="#E98A83" stroke-width="4"/>
</svg>
