<svg width="246" height="256" viewBox="0 0 246 256" fill="none" xmlns="http://www.w3.org/2000/svg">
<path d="M86.9099 10.7013C74.8224 2.79756 59.9895 -1.49291 54.1902 6.47042C48.7978 13.875 49.0666 23.8979 54.9966 36.5392C51.3462 41.3816 48.2047 46.6293 45.6516 52.2027C25.5423 54.8309 10.0148 72.0302 10.0148 92.8561C10.0148 97.8877 10.9212 102.708 12.5796 107.161C11.5518 106.786 10.6785 106.555 9.95964 106.47L8.79533 108.967L5.20338 109.372L5.2594 110.998L3.24243 113.577C13.7345 138.286 20.4862 156.308 23.4977 167.641C23.5803 167.951 23.6715 168.246 23.771 168.525C22.2142 175.89 21.3815 182.721 21.3815 188.71C21.3815 212.276 32.9956 225.468 51.5199 232.77C51.7019 244.077 56.7787 253.141 63.0148 253.141C68.1378 253.141 72.4785 247.024 73.9657 238.571C88.7013 240.919 105.6 241.494 123.407 241.494C140.645 241.494 156.895 240.955 171.103 238.791C172.627 247.13 176.936 253.141 182.015 253.141C188.173 253.141 193.2 244.303 193.501 233.195C212.305 225.984 224.015 212.741 224.015 188.71C224.015 183.045 223.29 176.626 221.928 169.715C222.245 169.122 222.513 168.433 222.723 167.641C225.735 156.308 232.486 138.286 242.978 113.577L240.961 110.998L241.017 109.372L237.425 108.967L236.261 106.47C235.235 106.592 233.893 107.01 232.236 107.724C234.03 103.115 235.015 98.1004 235.015 92.8561C235.015 72.0302 219.487 54.8309 199.378 52.2037C196.558 46.0472 193.02 40.2881 188.871 35.0336C194.128 23.0997 194.169 13.5787 188.992 6.47057C183.315 -1.32528 168.98 2.62267 157.039 10.2077C146.498 5.48354 134.813 2.85614 122.515 2.85614C109.794 2.85614 97.7302 5.66694 86.9099 10.7013Z" fill="#FAFAFA" stroke="#E98A83" stroke-width="4"/>
</svg>
